<svg width="253" height="134" viewBox="0 0 253 134" fill="none" xmlns="http://www.w3.org/2000/svg">
<path fill-rule="evenodd" clip-rule="evenodd" d="M90.0106 56.262L132.317 29.5234L149.072 33.2236L149.607 18.5245L197.525 0L197.728 111.306H204.155V21.4768L232.156 32.4344V52.4358V52.8719L245.824 47.4551V116.856H252.056V119.134H63.6069V116.53L175.64 116.584C175.659 100.214 175.677 81.8987 175.695 65.529C175.683 63.9041 175.67 62.2791 175.657 60.6552C177.404 60.6665 179.151 60.6786 180.897 60.6908C165.086 51.4877 149.276 42.285 133.465 33.0818L95.7914 56.2622H90.0103L90.0106 56.262ZM216.921 59.2391L231.736 53.1667C231.736 72.5465 231.736 91.9263 231.736 111.306H216.921C216.921 93.9502 216.921 76.5947 216.921 59.2391ZM191.001 42.9546H185.645V36.2999H191.001V42.9546ZM191.001 34.0278H185.645V27.3727H191.001V34.0278ZM191.001 25.1008H185.645V18.4459H191.001V25.1008ZM191.001 16.174H185.645V9.5189H191.001V16.174ZM181.152 38.4914H175.795V31.836H181.152V38.4914ZM181.152 29.5649H175.795V22.9093H181.152V29.5649ZM181.152 20.6372H175.795V13.9823H181.152V20.6372ZM171.302 34.0285H165.945V27.3734H171.302V34.0285ZM171.302 25.1018H165.945V18.4457H171.302V25.1018ZM161.453 29.5651H156.096V22.909H161.453V29.5651Z" fill="#2B2A29"/>
<path fill-rule="evenodd" clip-rule="evenodd" d="M100.4 56.262L130.619 37.1631L134.081 39.1784L106.317 56.262H100.4Z" fill="#E31E24"/>
<path fill-rule="evenodd" clip-rule="evenodd" d="M0.608963 84.9031H8.69055C11.157 84.9031 13.1211 85.5179 14.5814 86.7478C16.0421 87.9769 16.7719 89.6192 16.7719 91.6728V94.9965C16.7719 97.0496 16.0421 98.6914 14.5814 99.9211C13.1211 101.15 11.157 101.766 8.69055 101.766H5.76978V113.278H0.608704V84.9033L0.608963 84.9031ZM8.44756 97.7119C9.45322 97.7119 10.233 97.4813 10.7841 97.0228C11.3359 96.5633 11.6121 95.9145 11.6121 95.0776V91.5915C11.6121 90.7538 11.3359 90.1053 10.7841 89.6458C10.233 89.1863 9.45322 88.9564 8.44756 88.9564H5.77004V97.7119H8.44756ZM32.6921 113.278L28.9433 101.562H26.2657V113.278H21.1052V84.9031H29.1868C31.6535 84.9031 33.6173 85.5179 35.0773 86.7478C36.5384 87.9769 37.2681 89.6192 37.2681 91.6728V94.7941C37.2681 96.0913 36.96 97.2394 36.3439 98.2387C35.7267 99.2382 34.8504 100.022 33.7146 100.589L38.0468 113.278H32.6918L32.6921 113.278ZM26.2657 97.5088H28.9433C29.9494 97.5088 30.7292 97.2799 31.2803 96.8205C31.8321 96.3603 32.1083 95.7119 32.1083 94.8737V91.5915C32.1083 90.7538 31.8321 90.1053 31.2803 89.6458C30.7292 89.1863 29.9494 88.9564 28.9433 88.9564H26.2657V97.5091V97.5088ZM50.1207 113.682C47.6548 113.682 45.6578 113.055 44.1334 111.797C42.6081 110.541 41.8446 108.886 41.8446 106.832V91.3481C41.8446 89.2948 42.6081 87.6397 44.1334 86.3824C45.658 85.1264 47.6548 84.4981 50.1207 84.4981C52.5882 84.4981 54.5837 85.1264 56.1096 86.3824C57.6341 87.6397 58.3968 89.2948 58.3968 91.3481V106.832C58.3968 108.886 57.6341 110.541 56.1096 111.797C54.5834 113.055 52.5882 113.682 50.1207 113.682ZM50.1207 109.629C51.095 109.629 51.8577 109.385 52.4095 108.899C52.9606 108.412 53.2368 107.724 53.2368 106.832V91.3481C53.2368 90.4562 52.9606 89.7668 52.4095 89.2806C51.8577 88.7943 51.095 88.5505 50.1207 88.5505C49.1472 88.5505 48.3846 88.7943 47.8327 89.2806C47.2816 89.7668 47.0047 90.4562 47.0047 91.3481V106.832C47.0047 107.724 47.2816 108.412 47.8327 108.899C48.3846 109.385 49.1472 109.629 50.1207 109.629ZM63.6064 84.9028H71.688C74.1544 84.9028 76.1185 85.5177 77.5793 86.7475C79.0395 87.9767 79.7701 89.619 79.7701 91.6726V94.9963C79.7701 97.0494 79.0395 98.6912 77.5793 99.9208C76.1185 101.15 74.1544 101.766 71.688 101.766H68.7664V113.278H63.6061V84.9031L63.6064 84.9028ZM71.445 97.7117C72.4514 97.7117 73.2304 97.4811 73.7815 97.0226C74.3333 96.5631 74.6095 95.9143 74.6095 95.0773V91.5913C74.6095 90.7536 74.3333 90.105 73.7815 89.6455C73.2304 89.186 72.4514 88.9562 71.445 88.9562H68.7667V97.7117H71.445ZM84.1026 84.9028H98.7573V88.9562H89.2631V96.8605H96.8095V100.914H89.2631V109.223H98.7573V113.278H84.1026V84.9028ZM114.677 113.278L110.927 101.562H108.251V113.278H103.09V84.9028H111.171C113.638 84.9028 115.602 85.5177 117.063 86.7475C118.522 87.9767 119.253 89.619 119.253 91.6726V94.7939C119.253 96.0911 118.944 97.2392 118.328 98.2385C117.711 99.238 116.835 100.022 115.699 100.589L120.032 113.278H114.677L114.677 113.278ZM108.251 97.5086H110.927C111.934 97.5086 112.714 97.2797 113.265 96.8202C113.817 96.36 114.093 95.7117 114.093 94.8735V91.5913C114.093 90.7536 113.817 90.105 113.265 89.6455C112.714 89.186 111.934 88.9562 110.927 88.9562H108.251V97.5088V97.5086ZM122.612 84.9026H139.067V88.9559H133.421V113.277H128.26V88.9559H122.612V84.9026ZM160.196 84.9026L153.283 101.4V113.278H148.123V101.4L141.209 84.9026H146.71L150.703 95.7257L154.792 84.9026H160.196H160.196Z" fill="#E31E24"/>
<path fill-rule="evenodd" clip-rule="evenodd" d="M23.3592 118.435H26.3282V133.848H23.3592V127.401H18.0371V133.848H15.0429V118.435H18.0371V125.1H23.3592V118.435ZM51.0395 118.435H53.2863L56.2545 129.68L58.3677 118.435H61.4169L57.9134 133.848H54.9441L52.2435 123.363L49.3814 133.848H46.4134L42.883 118.435H45.9318L48.0443 129.68L51.0395 118.435ZM41.1981 122.994V129.289C41.1981 130.245 40.9572 131.091 40.4762 131.786C40.0208 132.503 39.3525 133.045 38.4698 133.436C37.5881 133.805 36.5713 134 35.3947 134C34.2171 134 33.2016 133.805 32.3186 133.436C31.4359 133.045 30.7676 132.503 30.3122 131.786C29.8312 131.091 29.5903 130.245 29.5903 129.289V122.994C29.5903 122.039 29.8312 121.192 30.3122 120.476C30.7679 119.781 31.4359 119.238 32.3186 118.847C33.2014 118.456 34.2171 118.283 35.3947 118.283C36.5713 118.283 37.5878 118.456 38.4698 118.847C39.3525 119.238 40.0211 119.781 40.4762 120.476C40.9572 121.192 41.1981 122.039 41.1981 122.994ZM11.6813 127.032C12.1097 127.575 12.3237 128.291 12.3237 129.181V129.854C12.3237 130.744 12.1097 131.482 11.6284 132.112C11.173 132.719 10.505 133.197 9.64899 133.522C8.76625 133.848 7.69654 134 6.46631 134C5.4233 134 4.51385 133.892 3.71176 133.631C2.9089 133.37 2.26785 133.002 1.73234 132.502C1.19813 132.003 0.823409 131.395 0.608948 130.656L3.44414 129.659C3.65782 130.31 4.05952 130.809 4.5945 131.156C5.12897 131.504 5.79803 131.655 6.57315 131.655C7.45589 131.655 8.1514 131.504 8.63244 131.2C9.11375 130.874 9.35466 130.44 9.35466 129.875V129.202C9.35466 128.79 9.22085 128.465 8.95401 128.204C8.68638 127.943 8.33863 127.748 7.93719 127.596C7.50983 127.444 6.94735 127.293 6.27959 127.118C6.25236 127.118 6.22539 127.118 6.19842 127.118C6.19842 127.097 6.17249 127.097 6.14552 127.097L6.01171 127.053C4.96793 126.814 4.11294 126.554 3.44414 126.315C2.80179 126.054 2.24062 125.642 1.75931 125.078C1.30471 124.535 1.06432 123.775 1.06432 122.842V122.429C1.06432 121.539 1.30497 120.801 1.73234 120.172C2.18694 119.542 2.85599 119.086 3.71176 118.761C4.56753 118.435 5.61054 118.283 6.84103 118.283C7.75074 118.283 8.55283 118.392 9.27479 118.63C9.96978 118.891 10.5582 119.238 11.0395 119.716C11.5208 120.194 11.8696 120.78 12.0833 121.496L9.38163 122.494C9.14098 121.886 8.82045 121.409 8.33889 121.105C7.88352 120.78 7.34931 120.606 6.73393 120.606C5.87816 120.606 5.20884 120.758 4.75425 121.062C4.2732 121.344 4.05952 121.778 4.05952 122.321V122.82C4.05952 123.255 4.19333 123.58 4.46095 123.841C4.75425 124.123 5.10226 124.318 5.5037 124.47C5.9321 124.622 6.5205 124.774 7.26943 124.947C7.29537 124.969 7.34957 124.969 7.40221 124.991C7.42918 124.991 7.48338 125.013 7.53602 125.034C7.56299 125.034 7.61693 125.034 7.64286 125.056C7.6968 125.056 7.72377 125.078 7.77641 125.078C8.71335 125.317 9.51518 125.577 10.1306 125.837C10.7457 126.098 11.2801 126.51 11.6816 127.032L11.6813 127.032ZM32.6391 123.016V129.246C32.6391 129.724 32.7729 130.136 32.9866 130.506C33.2014 130.852 33.5221 131.113 33.9505 131.308C34.3509 131.504 34.8322 131.59 35.3945 131.59C35.9559 131.59 36.4372 131.504 36.8386 131.308C37.266 131.113 37.5876 130.852 37.8012 130.506C38.0152 130.136 38.1487 129.724 38.1487 129.246V123.016C38.1487 122.538 38.0152 122.126 37.8012 121.778C37.5876 121.409 37.266 121.149 36.8386 120.954C36.4369 120.78 35.9559 120.672 35.3945 120.672C34.8322 120.672 34.3507 120.78 33.9505 120.954C33.5221 121.149 33.2014 121.409 32.9866 121.778C32.7729 122.126 32.6391 122.538 32.6391 123.016Z" fill="#2B2A29"/>
<path fill-rule="evenodd" clip-rule="evenodd" d="M63.3582 129.504H251.41V132.101H63.3582V129.504Z" fill="#E31E24"/>
<path d="M1.61621 72.082V68.3431H6.80036C7.24692 68.3431 7.57289 68.1926 7.78269 67.8921C7.98859 67.655 8.08947 67.3607 8.08947 67.0091C8.08947 66.5708 7.97692 66.1837 7.74794 65.8448C7.48368 65.5209 7.11467 65.3581 6.64529 65.3581H2.5949V61.7333H8.31482C9.53027 61.7591 10.5084 62.2712 11.2429 63.2727C11.9223 64.2483 12.2718 65.4131 12.2949 66.7659C12.2949 68.0298 12.0696 69.0204 11.6233 69.7344C11.1728 70.4729 10.6448 71.0108 10.0391 71.3494C9.45222 71.6861 8.91282 71.8808 8.41985 71.9319C7.92272 72.0313 7.6315 72.0822 7.5384 72.0822C7.70152 73.033 7.99274 73.7655 8.41985 74.28C8.64909 74.5299 8.98673 74.7286 9.43328 74.8794C9.88399 75.0419 10.4742 75.1249 11.2078 75.1249C12.241 75.1249 13.0524 74.761 13.6387 74.0345C14.1981 73.3975 14.4816 72.5754 14.4816 71.5742V63.461H18.4269V67.3484H21.114V61.7336H25.5913V79.3124H21.114V71.1232H18.5125V72.3827C18.4541 74.4112 17.6969 75.9886 16.2367 77.115C14.7808 78.2665 13.103 78.8425 11.2078 78.8425C9.27821 78.8172 7.77127 78.474 6.6803 77.8092C5.57739 77.1722 4.78904 76.4267 4.31915 75.5755C3.84899 74.712 3.56581 73.9286 3.47634 73.2279C3.35991 72.5627 3.31349 72.1818 3.33657 72.0822H1.61647L1.61621 72.082Z" fill="#2B2A29"/>
<path d="M27.482 61.7328C27.5751 61.6566 27.878 61.5828 28.3943 61.5064C28.8644 61.4579 29.4274 61.4326 30.0835 61.4326C30.8641 61.4326 31.5941 61.4808 32.2696 61.5826C32.9607 61.6817 33.454 61.8896 33.753 62.2008C34.0828 62.5015 34.2965 62.8462 34.3901 63.2341C34.4599 63.6468 34.4907 64.0746 34.4907 64.5127V68.5884H38.5214V61.7328H43.0025V79.3116H38.5214V72.382H34.4907V74.0337C34.4677 74.9102 34.1645 75.6047 33.5782 76.1191C32.9491 76.6823 32.196 76.9638 31.3221 76.9638C29.866 76.9382 28.8445 76.4262 28.2584 75.4247C27.6721 74.4464 27.3886 73.3205 27.4117 72.0434C27.4117 71.1671 27.5746 70.4852 27.8969 69.9963C28.1806 69.5202 28.5263 69.1878 28.9298 69.0014C29.7996 68.7006 30.3084 68.5631 30.4445 68.5884V66.9345C30.4445 66.6215 30.4562 66.3397 30.4793 66.0901C30.4793 65.7515 30.3978 65.4251 30.2383 65.112C30.1102 64.9618 29.901 64.8875 29.6017 64.8875C29.1746 64.9131 28.7278 64.9871 28.2581 65.112C27.8077 65.2519 27.5512 65.3578 27.4815 65.4319V61.7328H27.482Z" fill="#2B2A29"/>
<path d="M46.7386 69.3209C46.6263 69.3209 46.2843 69.0621 45.721 68.5503C45.457 68.2626 45.2358 67.9111 45.0496 67.498C44.8437 67.0597 44.7428 66.5344 44.7428 65.9205C44.7428 65.1058 44.949 64.4176 45.3603 63.8544C45.764 63.2912 46.269 62.8151 46.8784 62.4272C48.2222 61.714 49.6202 61.3561 51.0802 61.3561C53.9968 61.5063 55.608 61.6819 55.9189 61.8833V65.2813C55.8956 65.2813 55.5074 65.1757 54.7499 64.9618C54.0007 64.7881 53.2393 64.6868 52.4588 64.6632C51.4028 64.6378 50.5442 64.7121 49.892 64.888C49.1581 65.0886 48.7896 65.5886 48.7896 66.3909C48.7896 66.9032 49.003 67.2736 49.4262 67.4982C49.8072 67.7121 50.2185 67.818 50.665 67.818H55.2823V71.1227H50.8048C50.3352 71.1227 49.9428 71.2985 49.6321 71.6497C49.3139 72.0376 49.1236 72.5942 49.0652 73.3205C49.0652 74.286 49.3642 74.9614 49.962 75.349C50.5214 75.7617 51.166 75.9816 51.8883 76.0074C52.5794 76.0074 53.2282 75.8381 53.8379 75.4992C54.4436 75.2238 54.9716 74.8786 55.4223 74.4659C56.4088 73.5151 56.9132 73.0009 56.9365 72.9271L59.057 76.7021C59.0334 76.7761 58.3851 77.2653 57.1072 78.1671C56.5016 78.5186 55.7716 78.836 54.9213 79.124C54.0827 79.425 53.1468 79.5876 52.1141 79.6129C50.2304 79.5876 48.5609 79.0371 47.1004 77.9595C46.3901 77.4221 45.8232 76.7699 45.3956 76.0077C44.9609 75.2305 44.7433 74.3601 44.7433 73.3972C44.7433 72.6941 44.8559 72.0887 45.0849 71.574C45.2713 71.0617 45.4928 70.6425 45.7568 70.3164C46.3665 69.6516 46.6924 69.3214 46.7391 69.3214L46.7386 69.3209Z" fill="#2B2A29"/>
<path d="M64.9235 79.3119H60.7222V61.7693H64.9235V79.3119Z" fill="#2B2A29"/>
<path d="M75.6724 65.6945C75.2375 65.544 74.7835 65.47 74.3133 65.47C73.4394 65.47 72.6902 65.7389 72.0572 66.2765C71.37 66.8163 71.0126 67.6613 70.9893 68.813C70.9893 69.916 71.358 70.7351 72.0922 71.273C72.7675 71.813 73.5675 72.0817 74.4842 72.0817C75.5635 72.0817 76.5186 71.7368 77.3461 71.0487V61.7328H81.8231V79.3116H77.3461V75.3106C77.2527 75.336 77.1091 75.4119 76.9148 75.5369C76.7089 75.6495 76.4486 75.7679 76.1382 75.8926C75.5282 76.17 74.6471 76.3077 73.4858 76.3077C71.8435 76.2824 70.329 75.643 68.9388 74.3919C67.4591 73.1893 66.6944 71.2286 66.6477 68.5125C66.671 66.359 67.366 64.6738 68.7329 63.461C70.03 62.2837 71.5562 61.695 73.3149 61.695C74.1191 61.695 74.9035 61.839 75.6724 62.127V65.6948V65.6945Z" fill="#2B2A29"/>
<path d="M88.7432 79.3119H84.5416V61.7693H88.7432V79.3119Z" fill="#2B2A29"/>
<path d="M92.7583 69.3209C92.6458 69.3209 92.304 69.0621 91.741 68.5503C91.4767 68.2626 91.2558 67.9111 91.0693 67.498C90.8634 67.0597 90.7625 66.5344 90.7625 65.9205C90.7625 65.1058 90.9684 64.4176 91.3803 63.8544C91.784 63.2912 92.2887 62.8151 92.8983 62.4272C94.2422 61.714 95.6399 61.3561 97.0999 61.3561C100.016 61.5063 101.628 61.6819 101.939 61.8833V65.2813C101.915 65.2813 101.527 65.1757 100.77 64.9618C100.02 64.7881 99.2593 64.6868 98.4787 64.6632C97.4225 64.6378 96.5641 64.7121 95.9119 64.888C95.1783 65.0886 94.8093 65.5886 94.8093 66.3909C94.8093 66.9032 95.023 67.2736 95.4459 67.4982C95.8266 67.7121 96.2382 67.818 96.6847 67.818H101.302V71.1227H96.8248C96.3546 71.1227 95.9625 71.2985 95.6521 71.6497C95.3337 72.0376 95.1433 72.5942 95.085 73.3205C95.085 74.286 95.384 74.9614 95.982 75.349C96.5411 75.7617 97.186 75.9816 97.908 76.0074C98.5991 76.0074 99.2476 75.8381 99.8576 75.4992C100.463 75.2238 100.992 74.8786 101.442 74.4659C102.428 73.5151 102.933 73.0009 102.956 72.9271L105.076 76.7021C105.053 76.7761 104.405 77.2653 103.127 78.1671C102.521 78.5186 101.791 78.836 100.941 79.124C100.102 79.425 99.1662 79.5876 98.1336 79.6129C96.2504 79.5876 94.5806 79.0371 93.1203 77.9595C92.4098 77.4221 91.8429 76.7699 91.4155 76.0077C90.9804 75.2305 90.7631 74.3601 90.7631 73.3972C90.7631 72.6941 90.8756 72.0887 91.1046 71.574C91.2913 71.0617 91.5125 70.6425 91.7765 70.3164C92.3859 69.6516 92.7121 69.3214 92.7588 69.3214L92.7583 69.3209Z" fill="#2B2A29"/>
<path d="M111.032 79.4404V61.5283H120.921V64.5056H114.592V68.6504H120.482V71.485H114.592V76.4155H121.071V79.4404H111.032Z" fill="#2B2A29"/>
<path d="M127.451 72.2471H130.503L128.967 64.7362L127.451 72.2471ZM122.304 79.4404L126.641 61.5283H131.451L135.826 79.4404H131.963L131.015 74.9384H126.892L125.966 79.4404H122.304Z" fill="#2B2A29"/>
<path d="M137.354 73.1524H140.943V74.3031C140.943 75.403 141.093 76.1572 141.387 76.5542C141.682 76.9551 142.194 77.1538 142.92 77.1538C143.679 77.1538 144.255 76.9751 144.653 76.6179C145.049 76.2604 145.246 75.7327 145.246 75.0376C145.246 74.5016 145.109 74.0414 144.832 73.6562C144.559 73.2751 143.961 72.779 143.043 72.1755L141.208 70.9647C139.62 69.9403 138.613 69.0949 138.182 68.4278C137.751 67.7611 137.537 66.9232 137.537 65.9149C137.537 64.4104 138.015 63.2311 138.976 62.3778C139.936 61.5239 141.259 61.0992 142.941 61.0992C144.729 61.0992 146.095 61.5519 147.047 62.4607C147.999 63.366 148.472 64.6682 148.472 66.3672C148.472 66.538 148.472 66.6687 148.468 66.7604C148.463 66.8554 148.455 66.9352 148.447 67.0064H145.04V66.53C145.04 65.5575 144.87 64.8626 144.528 64.4422C144.187 64.0252 143.624 63.8151 142.842 63.8151C142.266 63.8151 141.818 63.9738 141.489 64.2871C141.161 64.6009 140.994 65.0377 140.994 65.5973C140.994 66.352 141.733 67.1856 143.205 68.1026L143.244 68.1224L145.22 69.3689C146.628 70.2384 147.58 71.0561 148.08 71.8303C148.579 72.6005 148.831 73.5807 148.831 74.7759C148.831 76.4035 148.331 77.662 147.328 78.5434C146.33 79.4286 144.9 79.8692 143.043 79.8692C141.11 79.8692 139.672 79.4049 138.724 78.4758C137.781 77.5467 137.307 76.1256 137.307 74.2201C137.307 74.0216 137.324 73.6883 137.354 73.2235V73.1524Z" fill="#2B2A29"/>
<path d="M154.487 79.4404V64.4822H150.363V61.5283H162.195V64.4822H158.072V79.4404H154.487Z" fill="#2B2A29"/>
<path fill-rule="evenodd" clip-rule="evenodd" d="M167.762 56.262L137.544 37.1631L134.081 39.1784L161.846 56.262H167.762Z" fill="#E31E24"/>
</svg>
