<svg width="231" height="231" viewBox="0 0 231 231" fill="none" xmlns="http://www.w3.org/2000/svg">
<path fill-rule="evenodd" clip-rule="evenodd" d="M115.217 13.9939L125.864 0L133.287 15.5719L146.259 3.70565L150.784 20.3532L165.665 10.9946L167.147 28.1831L183.458 21.6371L181.852 38.8149L199.068 35.2874L194.422 51.9028L211.991 51.5099L204.456 67.0259L221.814 69.7805L211.632 83.7014L228.218 89.5132L215.718 101.392L231 110.075L216.583 119.526L230.071 130.801L214.198 137.526L225.458 151.03L208.64 154.809L217.312 170.11L200.091 170.821L205.893 187.425L188.822 185.046L191.57 202.422L175.196 197.031L174.8 214.617L159.653 206.387L156.125 223.619L142.69 212.815L136.144 229.141L124.851 216.107L115.5 231L106.715 216.158L94.8562 229.141L88.8594 212.966L74.8752 223.619L71.8596 206.634L56.2004 214.617L56.2626 197.366L39.4323 202.422L42.5701 185.457L25.1071 187.425L31.222 171.295L13.6882 170.11L22.5827 155.33L5.54218 151.03L16.929 138.08L0.930846 130.801L14.4431 120.095L0 110.075L15.2067 101.955L2.78181 89.5132L19.1939 84.2424L9.18835 69.7805L26.276 67.5262L19.0094 51.5099L36.2258 52.3472L31.934 35.2874L48.7236 39.1885L47.5418 21.6371L63.3662 28.4751L65.3351 10.9946L79.686 20.5528L84.7413 3.70565L97.1555 15.6728L105.136 0L115.217 13.9939Z" fill="#FF0000"/>
</svg>
