<svg width="199" height="72" viewBox="0 0 199 72" fill="none" xmlns="http://www.w3.org/2000/svg">
<path d="M15.0443 43.581C12.6229 43.581 10.47 43.1094 8.58568 42.1754C6.69979 41.2322 5.2405 39.8988 4.18631 38.189L10.2583 33.7664C10.9043 34.599 11.6807 35.2457 12.5953 35.6912C13.5098 36.1444 14.4612 36.3748 15.451 36.3748C16.875 36.3748 17.9736 35.8664 18.7501 34.8663C19.5265 33.8678 19.9148 32.4515 19.9148 30.6296V3.76514H27.6117V30.648C27.6117 33.3778 27.113 35.7081 26.134 37.6406C25.1443 39.5747 23.7218 41.0555 21.8467 42.0632C19.9623 43.0725 17.6974 43.5794 15.0459 43.5794L15.0443 43.581Z" fill="#E31E24"/>
<path d="M46.1851 3.76514H50.8883L65.9416 43.1739H57.9577L48.5329 16.2634L39.1158 43.1739H31.1318L46.1851 3.76514ZM38.3577 29.7048H59.0671V36.8556H38.3577V29.7048Z" fill="#E31E24"/>
<path d="M77.9643 43.1739H70.2766V3.76514H77.9643V43.1739Z" fill="#E31E24"/>
<path d="M86.0879 3.76514H95.1521L109.799 33.9615L109.153 34.6635V3.76514H116.239V43.1462H107.119L92.5281 13.4138L93.1756 12.7118V43.1462H86.0879V3.76514Z" fill="#E31E24"/>
<path d="M135.636 3.76514H140.34L155.393 43.1739H147.409L137.984 16.2634L128.567 43.1739H120.583L135.636 3.76514ZM127.809 29.7048H148.518V36.8556H127.809V29.7048Z" fill="#E31E24"/>
<path d="M185.037 3.76514H194.814V43.1739H188.077V12.572L188.346 14.3109L180.815 38.7805H174.262L166.74 14.8486L167.009 12.572V43.1739H160.272V3.76514H170.039L177.543 30.3239L185.037 3.76514Z" fill="#E31E24"/>
<path d="M73.8933 57.411H79.8563C80.2768 57.411 80.6435 57.3142 80.9688 57.1207C81.288 56.9271 81.5381 56.6552 81.7177 56.305C81.8972 55.9547 81.9893 55.5522 81.9893 55.1006C81.9893 54.6352 81.9018 54.2281 81.7269 53.8732C81.5519 53.5184 81.3033 53.2465 80.9826 53.0529C80.6589 52.8594 80.286 52.7626 79.8579 52.7626H73.8949V49.3707H79.7689C80.9289 49.3707 81.954 49.6073 82.8378 50.085C83.7263 50.5582 84.4091 51.2295 84.8986 52.0928C85.3851 52.9592 85.6306 53.9592 85.6306 55.0991C85.6306 56.2374 85.3851 57.2374 84.8986 58.0961C84.4091 58.9549 83.7263 59.62 82.8378 60.0901C81.954 60.5632 80.9289 60.7998 79.7689 60.7998H73.8949V57.4079L73.8933 57.411ZM72.2913 49.3738H75.8068V68.0428H72.2913V49.3738Z" fill="#E31E24"/>
<path d="M94.9265 68.2349C93.4902 68.2349 92.2657 67.963 91.2453 67.4192C90.2294 66.8769 89.4545 66.0827 88.9251 65.0443C88.3957 64.0058 88.1287 62.7523 88.1287 61.2883V49.3723H91.6442V61.3759C91.6442 62.4497 91.9281 63.2777 92.502 63.8691C93.0759 64.4605 93.8846 64.7539 94.9265 64.7539C95.9776 64.7539 96.7909 64.4605 97.3694 63.8691C97.9479 63.2777 98.2364 62.4497 98.2364 61.3759V49.3723H101.752V61.2883C101.752 62.7523 101.48 64.0058 100.946 65.0443C100.412 66.0827 99.6374 66.8754 98.6139 67.4192C97.5934 67.963 96.3643 68.2349 94.928 68.2349H94.9265Z" fill="#E31E24"/>
<path d="M106.879 64.654H112.831C113.632 64.654 114.255 64.4574 114.697 64.0657C115.139 63.6755 115.358 63.1317 115.358 62.4312V62.3912C115.358 61.9181 115.257 61.5202 115.06 61.1869C114.869 60.8505 114.579 60.5955 114.198 60.4204C113.818 60.2452 113.362 60.1577 112.832 60.1577H106.88V56.7704H112.832C113.56 56.7704 114.12 56.5861 114.519 56.2174C114.918 55.8503 115.114 55.3326 115.114 54.6613C115.114 54.0668 114.918 53.5967 114.519 53.2634C114.12 52.93 113.56 52.7626 112.832 52.7626H106.88V49.3707H112.947C114.15 49.3707 115.185 49.572 116.038 49.9668C116.891 50.3662 117.545 50.9438 117.987 51.7026C118.433 52.46 118.656 53.3678 118.656 54.4324C118.656 55.1605 118.512 55.7996 118.226 56.3618C117.938 56.9225 117.52 57.3818 116.974 57.7413C116.428 58.1007 115.771 58.3465 115.001 58.474C115.818 58.5862 116.524 58.8366 117.111 59.2268C117.697 59.6169 118.14 60.1208 118.441 60.7476C118.748 61.3697 118.897 62.0978 118.897 62.9166V62.9566C118.897 64.0257 118.673 64.9413 118.228 65.7032C117.776 66.4667 117.124 67.0443 116.262 67.4437C115.404 67.8431 114.37 68.0397 113.167 68.0397H106.882V64.6525L106.879 64.654ZM105.343 49.3723H108.858V68.0413H105.343V49.3723Z" fill="#E31E24"/>
<path d="M122.296 49.3723H125.811V68.0413H122.296V49.3723ZM123.858 64.6541H134.785V68.0413H123.858V64.6541Z" fill="#E31E24"/>
<path d="M140.734 68.0413H137.091V49.3723H140.734V68.0413Z" fill="#E31E24"/>
<path d="M150.941 68.2349C149.523 68.2349 148.307 67.963 147.3 67.4192C146.289 66.8769 145.523 66.0827 144.992 65.0443C144.458 64.0058 144.196 62.7477 144.196 61.2761V56.1529C144.196 54.6813 144.458 53.4278 144.992 52.3847C145.521 51.3448 146.287 50.5521 147.3 50.0037C148.307 49.4568 149.523 49.1803 150.941 49.1803C152.111 49.1803 153.162 49.4338 154.085 49.9392C155.009 50.443 155.77 51.1804 156.375 52.1436C156.975 53.1037 157.395 54.265 157.622 55.6276H153.98C153.845 55.01 153.634 54.4831 153.346 54.0499C153.06 53.6121 152.715 53.2788 152.308 53.0468C151.902 52.8149 151.446 52.7012 150.943 52.7012C150.286 52.7012 149.726 52.8364 149.261 53.1037C148.802 53.3756 148.446 53.7704 148.202 54.2865C147.961 54.8042 147.839 55.4263 147.839 56.1529V61.2761C147.839 62.0042 147.961 62.6263 148.202 63.1379C148.448 63.651 148.802 64.0411 149.261 64.313C149.726 64.5803 150.286 64.7155 150.943 64.7155C151.455 64.7155 151.919 64.6018 152.325 64.3791C152.737 64.1518 153.083 63.8184 153.367 63.3806C153.648 62.9474 153.854 62.4174 153.98 61.7907H157.622C157.386 63.1532 156.961 64.3146 156.361 65.2778C155.756 66.2379 154.995 66.9737 154.076 67.4775C153.157 67.9814 152.111 68.2364 150.941 68.2364V68.2349Z" fill="#E31E24"/>
<path d="M163.957 68.0413H160.314V49.3723H163.957V68.0413Z" fill="#E31E24"/>
<path d="M171.347 50.9024H174.862V68.0429H171.347V50.9024ZM166.268 49.3739H179.938V52.7657H166.268V49.3739Z" fill="#E31E24"/>
<path d="M189.325 60.8367V68.0413H185.809V60.8367L180.324 49.3723H184.002L187.569 57.4111L191.133 49.3723H194.814L189.325 60.8367Z" fill="#E31E24"/>
</svg>
